<?xml version="1.0" encoding="UTF-8"?>
<!-- Generated by jsxcad -->
<!DOCTYPE svg PUBLIC "-//W3C//DTD SVG 1.1 Tiny//EN" "http://www.w3.org/Graphics/SVG/1.1/DTD/svg11-tiny.dtd">
<svg baseProfile="tiny" height="47.500000000000036mm" width="25.000000000000014mm" viewBox="0 0 25.000000000000014 47.500000000000036" version="1.1" stroke="black" stroke-width=".1" fill="none" xmlns="http://www.w3.org/2000/svg">
<path fill="#008000" stroke="#008000" d="M0.02467 22.96512 L0.09857 22.18333 L0.22141 21.40773 L7.5 -11.25 L17.5 -11.25 L24.77859 21.40773 L24.90143 22.18333 L24.97533 22.96512 L25 23.75 L24.97533 24.53488 L24.90143 25.31667 L24.77859 26.09227 L24.60729 26.85862 L24.38821 27.61271 L24.12221 28.35156 L23.81034 29.07224 L23.45383 29.77192 L23.0541 30.44783 L22.61271 31.09732 L22.13142 31.7178 L21.61211 32.30684 L21.05684 32.86211 L20.4678 33.38142 L19.84732 33.86271 L19.19783 34.3041 L18.52192 34.70383 L17.82224 35.06034 L17.10156 35.37221 L16.36271 35.63821 L15.60862 35.85729 L14.84227 36.02859 L14.06667 36.15143 L13.28488 36.22533 L12.5 36.25 L11.71512 36.22533 L10.93333 36.15143 L10.15773 36.02859 L9.39138 35.85729 L8.63729 35.63821 L7.89844 35.37221 L7.17776 35.06034 L6.47808 34.70383 L5.80217 34.3041 L5.15268 33.86271 L4.5322 33.38142 L3.94316 32.86211 L3.38789 32.30684 L2.86858 31.7178 L2.38729 31.09732 L1.9459 30.44783 L1.54617 29.77192 L1.18966 29.07224 L0.87779 28.35156 L0.61179 27.61271 L0.39271 26.85862 L0.22141 26.09227 L0.09857 25.31667 L0.02467 24.53488 L0 23.75 z"/>
<path fill="#008000" stroke="#008000" d="M0.09856652017968558 25.31667032893934 L0.09856652017968558 25.31667032893934 L0.02466573146070529 24.53488040349512 L0.02466573146070529 24.53488040349512 z"/>
<path fill="#008000" stroke="#008000" d="M7.808734361100629e-15 23.749999999999996 L7.808734361100629e-15 23.749999999999996 L0.024665790399147906 24.534880132291708 L0.024665790399147906 24.534880132291708 z"/>
<path fill="#008000" stroke="#008000" d="M0.22141037103127356 26.092269941234118 L0.22141037103127356 26.092269941234118 L0.09856686087617784 25.316670497190902 L0.09856686087617784 25.316670497190902 z"/>
<path fill="#008000" stroke="#008000" d="M0.39270990699824937 26.858620020788322 L0.39270990699824937 26.858620020788322 L0.2214105904779028 26.092269868012732 L0.2214105904779028 26.092269868012732 z"/>
<path fill="#008000" stroke="#008000" d="M0.611792605725167 27.612709242967682 L0.611792605725167 27.612709242967682 L0.3927096934167973 26.858620089070552 L0.3927096934167973 26.858620089070552 z"/>
<path fill="#008000" stroke="#008000" d="M0.8777948031854026 28.35155827074426 L0.8777948031854026 28.35155827074426 L0.6117923548128165 27.61270915221395 L0.6117923548128165 27.61270915221395 z"/>
<path fill="#008000" stroke="#008000" d="M1.1896611913013884 29.0722394844784 L1.1896611913013884 29.0722394844784 L0.8777947673114772 28.351557937002287 L0.8777947673114772 28.351557937002287 z"/>
<path fill="#008000" stroke="#008000" d="M1.5461666894953299 29.771921686785195 L1.5461666894953299 29.771921686785195 L1.1896610432388448 29.07223946844363 L1.1896610432388448 29.07223946844363 z"/>
<path fill="#008000" stroke="#008000" d="M1.9458985024286644 30.447830885661624 L1.9458985024286644 30.447830885661624 L1.5461668403386684 29.771921868619362 L1.5461668403386684 29.771921868619362 z"/>
<path fill="#008000" stroke="#008000" d="M2.38729000149045 31.09731999898709 L2.38729000149045 31.09731999898709 L1.9458983174945517 30.44783114342826 L1.9458983174945517 30.44783114342826 z"/>
<path fill="#008000" stroke="#008000" d="M2.8685830554502862 31.71779762994556 L2.8685830554502862 31.71779762994556 L2.3872902540155496 31.097319802964986 L2.3872902540155496 31.097319802964986 z"/>
<path fill="#008000" stroke="#008000" d="M3.3878914969749405 32.306838680241306 L3.3878914969749405 32.306838680241306 L2.868582773668742 31.717797554686232 L2.868582773668742 31.717797554686232 z"/>
<path fill="#008000" stroke="#008000" d="M3.943161390075679 32.86210860992432 L3.943161390075679 32.86210860992432 L3.3878913900756786 32.30683860992432 L3.3878913900756786 32.30683860992432 z"/>
<path fill="#008000" stroke="#008000" d="M4.5322024453137635 33.38141722633126 L4.5322024453137635 33.38141722633126 L3.9431613197586906 32.862108503025055 L3.9431613197586906 32.862108503025055 z"/>
<path fill="#008000" stroke="#008000" d="M5.152680197035008 33.86270974598445 L5.152680197035008 33.86270974598445 L4.532202370054434 33.38141694454971 L4.532202370054434 33.38141694454971 z"/>
<path fill="#008000" stroke="#008000" d="M5.8021688565717335 34.30410168250545 L5.8021688565717335 34.30410168250545 L5.152680001012904 33.86270999850955 L5.152680001012904 33.86270999850955 z"/>
<path fill="#008000" stroke="#008000" d="M6.478078131380635 34.703833159661336 L6.478078131380635 34.703833159661336 L5.802169114338369 34.30410149757134 L5.802169114338369 34.30410149757134 z"/>
<path fill="#008000" stroke="#008000" d="M7.177760531556361 35.060338956761164 L7.177760531556361 35.060338956761164 L6.478078313214802 34.70383331050468 L6.478078313214802 34.70383331050468 z"/>
<path fill="#008000" stroke="#008000" d="M7.898442062997706 35.37220523268853 L7.898442062997706 35.37220523268853 L7.177760515521593 35.06033880869862 L7.177760515521593 35.06033880869862 z"/>
<path fill="#008000" stroke="#008000" d="M8.637290847786042 35.638207645187194 L8.637290847786042 35.638207645187194 L7.898441729255732 35.372205196814605 L7.898441729255732 35.372205196814605 z"/>
<path fill="#008000" stroke="#008000" d="M9.391379910929437 35.85729030658322 L9.391379910929437 35.85729030658322 L8.63729075703231 35.63820739427484 L8.63729075703231 35.63820739427484 z"/>
<path fill="#008000" stroke="#008000" d="M10.157730131987261 36.02858940952211 L10.157730131987261 36.02858940952211 L9.391379979211669 35.857290093001765 L9.391379979211669 35.857290093001765 z"/>
<path fill="#008000" stroke="#008000" d="M10.93332950280909 36.15143313912384 L10.93332950280909 36.15143313912384 L10.157730058765877 36.028589628968746 L10.157730058765877 36.028589628968746 z"/>
<path fill="#008000" stroke="#008000" d="M11.715119596504877 36.225334268539314 L11.715119596504877 36.225334268539314 L10.933329671060651 36.151433479820334 L10.933329671060651 36.151433479820334 z"/>
<path fill="#008000" stroke="#008000" d="M12.499999999999998 36.250000000000014 L12.499999999999998 36.250000000000014 L11.715119867708292 36.225334209600874 L11.715119867708292 36.225334209600874 z"/>
<path fill="#008000" stroke="#008000" d="M13.284880132291706 36.225334209600874 L13.284880132291706 36.225334209600874 L12.5 36.250000000000014 L12.5 36.250000000000014 z"/>
<path fill="#008000" stroke="#008000" d="M14.066670328939347 36.151433479820334 L14.066670328939347 36.151433479820334 L13.284880403495121 36.225334268539314 L13.284880403495121 36.225334268539314 z"/>
<path fill="#008000" stroke="#008000" d="M14.842269941234122 36.028589628968746 L14.842269941234122 36.028589628968746 L14.066670497190907 36.15143313912384 L14.066670497190907 36.15143313912384 z"/>
<path fill="#008000" stroke="#008000" d="M15.60862002078833 35.857290093001765 L15.60862002078833 35.857290093001765 L14.842269868012737 36.02858940952211 L14.842269868012737 36.02858940952211 z"/>
<path fill="#008000" stroke="#008000" d="M16.36270924296769 35.63820739427485 L16.36270924296769 35.63820739427485 L15.608620089070563 35.85729030658322 L15.608620089070563 35.85729030658322 z"/>
<path fill="#008000" stroke="#008000" d="M17.101558270744267 35.37220519681461 L17.101558270744267 35.37220519681461 L16.362709152213956 35.6382076451872 L16.362709152213956 35.6382076451872 z"/>
<path fill="#008000" stroke="#008000" d="M17.82223948447841 35.060338808698624 L17.82223948447841 35.060338808698624 L17.101557937002294 35.372205232688536 L17.101557937002294 35.372205232688536 z"/>
<path fill="#008000" stroke="#008000" d="M18.521921686785202 34.703833310504685 L18.521921686785202 34.703833310504685 L17.82223946844364 35.060338956761164 L17.82223946844364 35.060338956761164 z"/>
<path fill="#008000" stroke="#008000" d="M19.197830885661634 34.304101497571345 L19.197830885661634 34.304101497571345 L18.52192186861937 34.70383315966134 L18.52192186861937 34.70383315966134 z"/>
<path fill="#008000" stroke="#008000" d="M19.8473199989871 33.86270999850956 L19.8473199989871 33.86270999850956 L19.197831143428267 34.304101682505454 L19.197831143428267 34.304101682505454 z"/>
<path fill="#008000" stroke="#008000" d="M20.46779762994557 33.38141694454972 L20.46779762994557 33.38141694454972 L19.847319802964996 33.86270974598445 L19.847319802964996 33.86270974598445 z"/>
<path fill="#008000" stroke="#008000" d="M21.056838680241313 32.86210850302506 L21.056838680241313 32.86210850302506 L20.46779755468624 33.381417226331266 L20.46779755468624 33.381417226331266 z"/>
<path fill="#008000" stroke="#008000" d="M21.612108609924327 32.30683860992433 L21.612108609924327 32.30683860992433 L21.056838609924327 32.86210860992433 L21.056838609924327 32.86210860992433 z"/>
<path fill="#008000" stroke="#008000" d="M22.131417226331262 31.71779755468624 L22.131417226331262 31.71779755468624 L21.612108503025066 32.30683868024131 L21.612108503025066 32.30683868024131 z"/>
<path fill="#008000" stroke="#008000" d="M22.612709745984457 31.097319802964993 L22.612709745984457 31.097319802964993 L22.13141694454972 31.71779762994557 L22.13141694454972 31.71779762994557 z"/>
<path fill="#008000" stroke="#008000" d="M23.054101682505454 30.447831143428267 L23.054101682505454 30.447831143428267 L22.61270999850956 31.097319998987096 L22.61270999850956 31.097319998987096 z"/>
<path fill="#008000" stroke="#008000" d="M23.45383315966134 29.771921868619366 L23.45383315966134 29.771921868619366 L23.054101497571345 30.44783088566163 L23.054101497571345 30.44783088566163 z"/>
<path fill="#008000" stroke="#008000" d="M23.810338956761164 29.072239468443637 L23.810338956761164 29.072239468443637 L23.45383331050468 29.7719216867852 L23.45383331050468 29.7719216867852 z"/>
<path fill="#008000" stroke="#008000" d="M24.122205232688533 28.351557937002294 L24.122205232688533 28.351557937002294 L23.81033880869862 29.072239484478406 L23.81033880869862 29.072239484478406 z"/>
<path fill="#008000" stroke="#008000" d="M24.388207645187194 27.612709152213952 L24.388207645187194 27.612709152213952 L24.12220519681461 28.351558270744267 L24.12220519681461 28.351558270744267 z"/>
<path fill="#008000" stroke="#008000" d="M24.607290306583213 26.85862008907056 L24.607290306583213 26.85862008907056 L24.388207394274843 27.612709242967686 L24.388207394274843 27.612709242967686 z"/>
<path fill="#008000" stroke="#008000" d="M24.77858940952211 26.092269868012735 L24.77858940952211 26.092269868012735 L24.60729009300176 26.858620020788326 L24.60729009300176 26.858620020788326 z"/>
<path fill="#008000" stroke="#008000" d="M24.901433139123835 25.316670497190902 L24.901433139123835 25.316670497190902 L24.77858962896874 26.092269941234118 L24.77858962896874 26.092269941234118 z"/>
<path fill="#008000" stroke="#008000" d="M24.975334268539306 24.534880403495123 L24.975334268539306 24.534880403495123 L24.901433479820327 25.31667032893934 L24.901433479820327 25.31667032893934 z"/>
<path fill="#008000" stroke="#008000" d="M25.000000000000007 23.75 L25.000000000000007 23.75 L24.975334209600863 24.534880132291708 L24.975334209600863 24.534880132291708 z"/>
<path fill="#008000" stroke="#008000" d="M24.975334209600863 22.96511986770829 L24.975334209600863 22.96511986770829 L25.000000000000004 23.749999999999996 L25.000000000000004 23.749999999999996 z"/>
<path fill="#008000" stroke="#008000" d="M24.901433479820323 22.183329671060655 L24.901433479820323 22.183329671060655 L24.975334268539303 22.965119596504874 L24.975334268539303 22.965119596504874 z"/>
<path fill="#008000" stroke="#008000" d="M24.77858962896873 21.40773005876588 L24.77858962896873 21.40773005876588 L24.901433139123828 22.183329502809094 L24.901433139123828 22.183329502809094 z"/>
<path fill="#008000" stroke="#008000" d="M17.5 -11.25 L17.5 -11.25 L24.778589411640983 21.407730131130474 L24.778589411640983 21.407730131130474 z"/>
<path fill="#008000" stroke="#008000" d="M7.5 -11.249999999999982 L7.5 -11.249999999999982 L17.5 -11.249999999999982 L17.5 -11.249999999999982 z"/>
<path fill="#008000" stroke="#008000" d="M0.22141058835903007 21.407730131130478 L0.22141058835903007 21.407730131130478 L7.50000000000001 -11.249999999999996 L7.50000000000001 -11.249999999999996 z"/>
<path fill="#008000" stroke="#008000" d="M0.09856686087618334 22.183329502809094 L0.09856686087618334 22.183329502809094 L0.22141037103127903 21.407730058765882 L0.22141037103127903 21.407730058765882 z"/>
<path fill="#008000" stroke="#008000" d="M0.02466579039914902 22.96511986770829 L0.02466579039914902 22.96511986770829 L6.388099486083687e-15 23.75 L6.388099486083687e-15 23.75 z"/>
<path fill="#008000" stroke="#008000" d="M0.02466573146070862 22.965119596504877 L0.02466573146070862 22.965119596504877 L0.09856652017968891 22.183329671060655 L0.09856652017968891 22.183329671060655 z"/>
<path fill="#008000" stroke="#008000" d="M0.09857 22.18333 L0.02467 22.96512 L0 23.75 L0.02467 24.53488 L0.09857 25.31667 L0.22141 26.09227 L0.39271 26.85862 L0.61179 27.61271 L0.87779 28.35156 L1.18966 29.07224 L1.54617 29.77192 L1.9459 30.44783 L2.38729 31.09732 L2.86858 31.7178 L3.38789 32.30684 L3.94316 32.86211 L4.5322 33.38142 L5.15268 33.86271 L5.80217 34.3041 L6.47808 34.70383 L7.17776 35.06034 L7.89844 35.37221 L8.63729 35.63821 L9.39138 35.85729 L10.15773 36.02859 L10.93333 36.15143 L11.71512 36.22533 L12.5 36.25 L13.28488 36.22533 L14.06667 36.15143 L14.84227 36.02859 L15.60862 35.85729 L16.36271 35.63821 L17.10156 35.37221 L17.82224 35.06034 L18.52192 34.70383 L19.19783 34.3041 L19.84732 33.86271 L20.4678 33.38142 L21.05684 32.86211 L21.61211 32.30684 L22.13142 31.7178 L22.61271 31.09732 L23.0541 30.44783 L23.45383 29.77192 L23.81034 29.07224 L24.12221 28.35156 L24.38821 27.61271 L24.60729 26.85862 L24.77859 26.09227 L24.90143 25.31667 L24.97533 24.53488 L25 23.75 L24.97533 22.96512 L24.90143 22.18333 L24.77859 21.40773 L17.5 -11.25 L7.5 -11.25 L0.22141 21.40773 z"/>
</svg>